<?xml version="1.0" encoding="utf-8"?>
<!-- Generator: Adobe Illustrator 28.0.0, SVG Export Plug-In . SVG Version: 6.00 Build 0)  -->
<svg version="1.1" id="Layer_1" xmlns="http://www.w3.org/2000/svg" xmlns:xlink="http://www.w3.org/1999/xlink" x="0px" y="0px"
	 viewBox="0 0 276.9 172.4" enable-background="new 0 0 276.9 172.4" xml:space="preserve">
<g>
	<path fill="#121212" d="M276.4,53.9c-3.9-1.3-6.8-2.4-9.8-3.3c-4.8-1.4-8.5,0.2-10.8,4.7c-4.1,8-8.3,15.9-12.3,24
		c-3.7,7.6-2.2,14.5,3.5,18.3c6.3,4.2,13.4,2.9,19.1-3.5c3.1-3.5,6.1-7.2,10.3-10.3c0.1,1.6,0.4,3.2,0.4,4.7c0,25.3,0,50.7-0.1,76
		c0,6.6-0.8,7.3-7.7,7.3c-25.3,0-50.7-0.1-76,0.1c-20.2,0.1-40.3,0.6-60.5,0.6c-37-0.1-74-0.5-111-0.5c-4.3,0-5.4-1.8-5.4-5.7
		c0.1-15.5-0.1-31,0.1-46.5c0.1-5.5-1.5-8.5-7-10.2c-8.8-2.7-11.5-8.6-7.8-17c3.1-7,7.5-13.4,10.8-20.3c1.8-3.8,3.6-8,3.7-12.1
		c0.4-17.7,0.2-35.3,0.3-53c0-6.5,0.6-7.1,7.2-7.1c82,0,164,0,246,0c6.8,0,7.3,0.6,7.3,7.5c0,13.2,0,26.3-0.1,39.5
		C276.8,49,276.6,50.9,276.4,53.9z M149.5,71.7c2.6-7,4.9-12.6,6.9-18.3c2.8-7.8,6-15.6,8-23.6c2.4-9.5-2-15.9-11.5-18.2
		c-3.7-0.9-7.5-1.4-11.3-2.3c-6.4-1.5-11.3,0.9-14.4,6.3c-1.8,3.1-3.6,6.6-3.9,10.1c-1.3,12.4-6.9,23.3-11.2,34.6
		c-1.8,4.9-5.7,9-8.7,13.4c-0.4-0.3-0.8-0.5-1.1-0.8c1.1-4.3,2.6-8.5,3.3-12.9c1.8-10.5,3.2-21,4.7-31.5c0.9-6.6-1.6-13.8-6.5-15.6
		c-7.4-2.7-15-6.9-23.1-0.6c-5.3,4.1-11.4,7.3-17,11.1c-3.8,2.6-8,5-10.9,8.5C42,45.1,31.6,58.8,21,72.3c-2.7,3.4-5.5,6.8-7.6,10.5
		c-4.5,7.8,1.4,17.3,10.3,17.3c5.9,0,10-3.5,13.8-7.3C48,82.3,58.3,71.6,68.6,61c0.9-1,2-1.8,3-2.7c0.4,1.5,0.1,2.5-0.4,3.3
		C59.1,80.3,54,101.5,49,122.8c-1.5,6.5-0.3,7.8,6.3,7.7c7.5-0.2,15-0.4,22.5-0.2c3.6,0.1,5.6-1.2,6.6-4.6
		c2.7-8.9,5.5-17.8,8.2-26.8c0.5-1.6,1.1-3.1,2-5.7c0.7,2.1,0.9,2.9,1.2,3.7c4.3,11.8,14.3,15.7,25.5,10.1c2.7-1.4,5.9-2.1,9-2.5
		c4.4-0.5,9-0.1,13.4-0.7c8.4-1.1,16.9-2.2,25.1-4.3c8.1-2.1,11.6-8.3,10.8-16.8c-0.8-8.2-5-12.9-13.2-13.7c-3.2-0.3-6.6,0.5-9.8,1
		C154.7,70.2,152.9,70.8,149.5,71.7z M228.1,10.4C228.1,10.5,228.1,10.5,228.1,10.4c-5,0.1-10,0.1-15,0c-3.3,0-5.2,1.5-6.2,4.7
		c-10.3,33.1-20.7,66.1-30.8,99.2c-2.7,8.9,1.3,14.7,10.7,15.5c6,0.5,12,0.3,18,0.3c7.5,0,7.9-0.2,10.2-7.4
		c6.9-21.6,13.8-43.1,20.5-64.7c4.2-13.5,8-27.1,11.7-40.8c1.5-5.4,0.4-6.6-5.1-6.7C237.4,10.4,232.7,10.4,228.1,10.4z M227.5,160
		C227.5,160,227.5,159.9,227.5,160c6.2,0,12.3,0,18.5,0c3.9,0,5.4-2,4.6-5.8c-0.6-2.8-1.4-5.5-1.9-8.3c-0.8-4.4-3.3-6.2-7.6-6.1
		c-8,0.1-16,0-24,0c-13.9-0.1-14.2,0.3-13.3,14.4c0.2,3.9,1.9,5.8,5.8,5.8C215.5,159.9,221.5,160,227.5,160z M61.9,160
		C61.9,160,61.9,160,61.9,160c3.3,0,6.7,0,10,0c14,0,14.1-0.1,13.4-14.2c-0.2-4.2-1.9-6.1-6.1-6.1c-7,0-14,0-21,0
		c-17.5,0.1-13.1-1.4-18.4,14.9c-1.2,3.6,0.2,5.4,4,5.4C49.9,160,55.9,160,61.9,160z M193.3,152.2c0.1-9.5-1.8-11.4-11.2-11.6
		c-1.5,0-3,0-4.5,0c-7.2,0.4-9.7,3.1-9.9,10.3c-0.2,9.5,2.1,11.9,11.5,12c1.3,0,2.7,0,4-0.1C191.7,162.2,193.2,160.7,193.3,152.2z
		 M109,140.6c-11.4-0.1-14.8,3.8-12.9,15c0.8,4.9,3.9,6.9,8.3,7c5.6,0.1,11.8,1.9,16-3.8c0.1-0.1,0.1-0.3,0.2-0.5
		C124.8,148.1,120,140.7,109,140.6z M144.9,163.9c3.5-1.5,9-2,10.2-4.6c1.9-3.9,1.7-9.4,0.7-13.8c-0.9-4.3-5.6-4.7-9.5-4.8
		c-2.5-0.1-5,0.1-7.4,0.5c-3.9,0.5-6.1,2.9-6.8,6.9C130,159,133.3,162.9,144.9,163.9z"/>
</g>
</svg>
