<svg xmlns="http://www.w3.org/2000/svg" width="128" height="128">
  <rect
    x="6.307"
    y="38.298"
    width="115.386"
    height="51.405"
    rx="3.401"
    fill="#8ac9fe"
  />
  <path fill="#eaf6ff" d="M15.626 65.971h96.747v23.731H15.626z" />
  <path
    fill="#7a6d79"
    d="M84.351 65.971h7.673v12.668h-7.673zM60.164 65.971h7.673v12.668h-7.673zM35.977 65.971h7.673v12.668h-7.673z"
  />
  <path fill="#fee97d" d="M43.649 46.056H84.35v12.158H43.649z" />
  <path
    d="M112.374 52.135a6.079 6.079 0 1 1-6.079-6.079 6.079 6.079 0 0 1 6.079 6.079zM27.784 52.135a6.079 6.079 0 1 1-6.079-6.079 6.079 6.079 0 0 1 6.079 6.079z"
    fill="#7a6d79"
  />
  <path d="M121.693 78.7a1.75 1.75 0 0 0-1.75 1.75v5.85a1.654 1.654 0 0 1-1.652 1.651h-4.168V65.972a1.749 1.749 0 0 0-1.75-1.75H15.627a1.749 1.749 0 0 0-1.75 1.75v21.98H9.708A1.653 1.653 0 0 1 8.057 86.3V41.7a1.653 1.653 0 0 1 1.651-1.651h13.385a1.75 1.75 0 1 0 0-3.5H9.708A5.157 5.157 0 0 0 4.557 41.7v44.6a5.157 5.157 0 0 0 5.151 5.151h108.583a5.157 5.157 0 0 0 5.152-5.151v-5.853a1.75 1.75 0 0 0-1.75-1.747zm-11.07 9.255h-8.593V67.722h8.593zM37.727 76.89v-9.168H41.9v9.168zm-1.75 3.5h2.086v7.562H29.47v-20.23h4.757V78.64a1.75 1.75 0 0 0 1.75 1.75zm5.586 0h2.086a1.75 1.75 0 0 0 1.75-1.75V67.722h4.758v20.23h-8.594zm12.094-12.668h4.757V78.64a1.75 1.75 0 0 0 1.75 1.75h2.086v7.562h-8.593zm8.257 9.168v-9.168h4.172v9.168zm3.836 3.5h2.086a1.75 1.75 0 0 0 1.75-1.75V67.722h4.757v20.23H65.75zm12.093-12.668H82.6V78.64a1.75 1.75 0 0 0 1.75 1.75h2.086v7.562h-8.593zM86.1 76.89v-9.168h4.172v9.168zm3.836 3.5h2.086a1.75 1.75 0 0 0 1.75-1.75V67.722h4.758v20.23h-8.593zM17.377 67.722h8.593v20.23h-8.593z" />
  <path d="M118.291 36.548H46.486a1.75 1.75 0 1 0 0 3.5h71.805a1.654 1.654 0 0 1 1.652 1.651v29.385a1.75 1.75 0 0 0 3.5 0V41.7a5.157 5.157 0 0 0-5.152-5.152zM32.331 40.048h4.5a1.75 1.75 0 1 0 0-3.5h-4.5a1.75 1.75 0 0 0 0 3.5z" />
  <path d="M43.649 59.963h40.7a1.75 1.75 0 0 0 1.75-1.75V46.056a1.75 1.75 0 0 0-1.75-1.75h-40.7a1.75 1.75 0 0 0-1.75 1.75v12.157a1.75 1.75 0 0 0 1.75 1.75zM45.4 47.806h37.2v8.657H45.4zM106.3 59.963a7.829 7.829 0 1 0-7.829-7.828 7.837 7.837 0 0 0 7.829 7.828zm0-12.157a4.329 4.329 0 1 1-4.329 4.329 4.333 4.333 0 0 1 4.329-4.329zM13.877 52.135a7.829 7.829 0 1 0 7.828-7.829 7.837 7.837 0 0 0-7.828 7.829zm12.157 0a4.329 4.329 0 1 1-4.329-4.329 4.333 4.333 0 0 1 4.329 4.329z" />
</svg>
